<mxfile host="app.diagrams.net" agent="Mozilla/5.0 (Windows NT 10.0; Win64; x64) AppleWebKit/537.36 (KHTML, like Gecko) Chrome/128.0.0.0 Safari/537.36" version="24.7.8">
  <diagram name="Página-1" id="o1tYGA5VD-Gir7_Zn17H">
    <mxGraphModel dx="1050" dy="565" grid="1" gridSize="10" guides="1" tooltips="1" connect="1" arrows="1" fold="1" page="1" pageScale="1" pageWidth="827" pageHeight="1169" math="0" shadow="0">
      <root>
        <mxCell id="0" />
        <mxCell id="1" parent="0" />
        <mxCell id="eLppLcB8d9XgdmEEtkOA-1" style="edgeStyle=orthogonalEdgeStyle;rounded=0;orthogonalLoop=1;jettySize=auto;html=1;entryX=1;entryY=0.5;entryDx=0;entryDy=0;" edge="1" parent="1" source="eLppLcB8d9XgdmEEtkOA-4" target="eLppLcB8d9XgdmEEtkOA-5">
          <mxGeometry relative="1" as="geometry" />
        </mxCell>
        <mxCell id="eLppLcB8d9XgdmEEtkOA-2" style="edgeStyle=orthogonalEdgeStyle;rounded=0;orthogonalLoop=1;jettySize=auto;html=1;entryX=1;entryY=0.5;entryDx=0;entryDy=0;" edge="1" parent="1" source="eLppLcB8d9XgdmEEtkOA-4" target="eLppLcB8d9XgdmEEtkOA-6">
          <mxGeometry relative="1" as="geometry" />
        </mxCell>
        <mxCell id="eLppLcB8d9XgdmEEtkOA-3" style="edgeStyle=orthogonalEdgeStyle;rounded=0;orthogonalLoop=1;jettySize=auto;html=1;entryX=1;entryY=0.5;entryDx=0;entryDy=0;" edge="1" parent="1" source="eLppLcB8d9XgdmEEtkOA-4" target="eLppLcB8d9XgdmEEtkOA-7">
          <mxGeometry relative="1" as="geometry" />
        </mxCell>
        <mxCell id="eLppLcB8d9XgdmEEtkOA-4" value="produto" style="rounded=0;whiteSpace=wrap;html=1;" vertex="1" parent="1">
          <mxGeometry x="340" y="265" width="120" height="60" as="geometry" />
        </mxCell>
        <mxCell id="eLppLcB8d9XgdmEEtkOA-5" value="nome" style="ellipse;whiteSpace=wrap;html=1;" vertex="1" parent="1">
          <mxGeometry x="190" y="200" width="100" height="50" as="geometry" />
        </mxCell>
        <mxCell id="eLppLcB8d9XgdmEEtkOA-6" value="preço" style="ellipse;whiteSpace=wrap;html=1;" vertex="1" parent="1">
          <mxGeometry x="190" y="270" width="100" height="50" as="geometry" />
        </mxCell>
        <mxCell id="eLppLcB8d9XgdmEEtkOA-7" value="quantidade em estoque" style="ellipse;whiteSpace=wrap;html=1;" vertex="1" parent="1">
          <mxGeometry x="190" y="340" width="100" height="50" as="geometry" />
        </mxCell>
        <mxCell id="eLppLcB8d9XgdmEEtkOA-19" value="n" style="edgeStyle=orthogonalEdgeStyle;rounded=0;orthogonalLoop=1;jettySize=auto;html=1;" edge="1" parent="1" source="eLppLcB8d9XgdmEEtkOA-9" target="eLppLcB8d9XgdmEEtkOA-4">
          <mxGeometry relative="1" as="geometry" />
        </mxCell>
        <mxCell id="eLppLcB8d9XgdmEEtkOA-9" value="possui" style="rhombus;whiteSpace=wrap;html=1;" vertex="1" parent="1">
          <mxGeometry x="540" y="255" width="80" height="80" as="geometry" />
        </mxCell>
        <mxCell id="eLppLcB8d9XgdmEEtkOA-10" style="edgeStyle=orthogonalEdgeStyle;rounded=0;orthogonalLoop=1;jettySize=auto;html=1;entryX=0;entryY=0.5;entryDx=0;entryDy=0;" edge="1" parent="1" source="eLppLcB8d9XgdmEEtkOA-14" target="eLppLcB8d9XgdmEEtkOA-15">
          <mxGeometry relative="1" as="geometry" />
        </mxCell>
        <mxCell id="eLppLcB8d9XgdmEEtkOA-11" style="edgeStyle=orthogonalEdgeStyle;rounded=0;orthogonalLoop=1;jettySize=auto;html=1;entryX=0;entryY=0.5;entryDx=0;entryDy=0;" edge="1" parent="1" source="eLppLcB8d9XgdmEEtkOA-14" target="eLppLcB8d9XgdmEEtkOA-16">
          <mxGeometry relative="1" as="geometry" />
        </mxCell>
        <mxCell id="eLppLcB8d9XgdmEEtkOA-12" style="edgeStyle=orthogonalEdgeStyle;rounded=0;orthogonalLoop=1;jettySize=auto;html=1;entryX=0;entryY=0.5;entryDx=0;entryDy=0;" edge="1" parent="1" source="eLppLcB8d9XgdmEEtkOA-14" target="eLppLcB8d9XgdmEEtkOA-17">
          <mxGeometry relative="1" as="geometry" />
        </mxCell>
        <mxCell id="eLppLcB8d9XgdmEEtkOA-13" value="1" style="edgeStyle=orthogonalEdgeStyle;rounded=0;orthogonalLoop=1;jettySize=auto;html=1;entryX=1;entryY=0.5;entryDx=0;entryDy=0;" edge="1" parent="1" source="eLppLcB8d9XgdmEEtkOA-14" target="eLppLcB8d9XgdmEEtkOA-9">
          <mxGeometry relative="1" as="geometry" />
        </mxCell>
        <mxCell id="eLppLcB8d9XgdmEEtkOA-14" value="marca" style="rounded=0;whiteSpace=wrap;html=1;" vertex="1" parent="1">
          <mxGeometry x="700" y="265" width="120" height="60" as="geometry" />
        </mxCell>
        <mxCell id="eLppLcB8d9XgdmEEtkOA-15" value="nome" style="ellipse;whiteSpace=wrap;html=1;" vertex="1" parent="1">
          <mxGeometry x="870" y="200" width="100" height="50" as="geometry" />
        </mxCell>
        <mxCell id="eLppLcB8d9XgdmEEtkOA-16" value="sac" style="ellipse;whiteSpace=wrap;html=1;" vertex="1" parent="1">
          <mxGeometry x="870" y="270" width="100" height="50" as="geometry" />
        </mxCell>
        <mxCell id="eLppLcB8d9XgdmEEtkOA-17" value="nacionalidade" style="ellipse;whiteSpace=wrap;html=1;" vertex="1" parent="1">
          <mxGeometry x="870" y="340" width="100" height="50" as="geometry" />
        </mxCell>
      </root>
    </mxGraphModel>
  </diagram>
</mxfile>
